{
  "asset": {
    "version": "2.0",
    "generator": "THREE.GLTFExporter"
  },
  "scenes": [
    {
      "name": "AuxScene",
      "nodes": [
        5
      ]
    }
  ],
  "scene": 0,
  "nodes": [
    {
      "name": "02_low",
      "mesh": 0
    },
    {
      "name": "02_low_1",
      "mesh": 1
    },
    {
      "name": "02_low_2",
      "mesh": 2
    },
    {
      "name": "korean_fire_extinguisher_01",
      "extras": {
        "name": "korean_fire_extinguisher_01"
      },
      "children": [
        0,
        1,
        2
      ]
    },
    {
      "name": "Scene",
      "children": [
        3
      ]
    },
    {
      "matrix": [
        1,
        0,
        0,
        0,
        0,
        1,
        0,
        0,
        0,
        0,
        1,
        0,
        0,
        0.0003220968039686558,
        0,
        1
      ],
      "children": [
        4
      ]
    }
  ],
  "bufferViews": [
    {
      "buffer": 0,
      "byteOffset": 0,
      "byteLength": 78900,
      "target": 34962,
      "byteStride": 12
    },
    {
      "buffer": 0,
      "byteOffset": 78900,
      "byteLength": 78900,
      "target": 34962,
      "byteStride": 12
    },
    {
      "buffer": 0,
      "byteOffset": 157800,
      "byteLength": 52600,
      "target": 34962,
      "byteStride": 8
    },
    {
      "buffer": 0,
      "byteOffset": 210400,
      "byteLength": 114732,
      "target": 34963
    },
    {
      "buffer": 0,
      "byteOffset": 325132,
      "byteLength": 3240,
      "target": 34962,
      "byteStride": 12
    },
    {
      "buffer": 0,
      "byteOffset": 328372,
      "byteLength": 3240,
      "target": 34962,
      "byteStride": 12
    },
    {
      "buffer": 0,
      "byteOffset": 331612,
      "byteLength": 2160,
      "target": 34962,
      "byteStride": 8
    },
    {
      "buffer": 0,
      "byteOffset": 333772,
      "byteLength": 3840,
      "target": 34963
    },
    {
      "buffer": 0,
      "byteOffset": 337612,
      "byteLength": 360,
      "target": 34962,
      "byteStride": 12
    },
    {
      "buffer": 0,
      "byteOffset": 337972,
      "byteLength": 360,
      "target": 34962,
      "byteStride": 12
    },
    {
      "buffer": 0,
      "byteOffset": 338332,
      "byteLength": 240,
      "target": 34962,
      "byteStride": 8
    },
    {
      "buffer": 0,
      "byteOffset": 338572,
      "byteLength": 384,
      "target": 34963
    }
  ],
  "buffers": [
    {
      "byteLength": 338956,
      "uri": "data:application/octet-stream;base64,"
    }
  ],
  "accessors": [
    {
      "bufferView": 0,
      "componentType": 5126,
      "count": 6575,
      "max": [
        0.13988877832889557,
        0.6592506766319275,
        0.2442266196012497
      ],
      "min": [
        -0.1399787813425064,
        -3.978568940965488e-8,
        -0.12324045598506927
      ],
      "type": "VEC3"
    },
    {
      "bufferView": 1,
      "componentType": 5126,
      "count": 6575,
      "max": [
        1,
        1,
        1
      ],
      "min": [
        -1,
        -1,
        -1
      ],
      "type": "VEC3"
    },
    {
      "bufferView": 2,
      "componentType": 5126,
      "count": 6575,
      "max": [
        0.9953386783599854,
        0.9983311295509338
      ],
      "min": [
        1.2211032185405202e-10,
        0.002018570899963379
      ],
      "type": "VEC2"
    },
    {
      "bufferView": 3,
      "componentType": 5125,
      "count": 28683,
      "max": [
        6574
      ],
      "min": [
        0
      ],
      "type": "SCALAR"
    },
    {
      "bufferView": 4,
      "componentType": 5126,
      "count": 270,
      "max": [
        0.021115977317094803,
        0.5971118211746216,
        0.07202187180519104
      ],
      "min": [
        -0.02108774706721306,
        0.5549080967903137,
        0.06598098576068878
      ],
      "type": "VEC3"
    },
    {
      "bufferView": 5,
      "componentType": 5126,
      "count": 270,
      "max": [
        1,
        1,
        1
      ],
      "min": [
        -1,
        -1,
        0
      ],
      "type": "VEC3"
    },
    {
      "bufferView": 6,
      "componentType": 5126,
      "count": 270,
      "max": [
        0.9929836988449097,
        0.9954106211662292
      ],
      "min": [
        0,
        0.012133479118347168
      ],
      "type": "VEC2"
    },
    {
      "bufferView": 7,
      "componentType": 5125,
      "count": 960,
      "max": [
        269
      ],
      "min": [
        0
      ],
      "type": "SCALAR"
    },
    {
      "bufferView": 8,
      "componentType": 5126,
      "count": 30,
      "max": [
        -0.0016563162207603455,
        0.5324376821517944,
        0.007371075451374054
      ],
      "min": [
        -0.08279979974031448,
        0.47684013843536377,
        -0.07724466919898987
      ],
      "type": "VEC3"
    },
    {
      "bufferView": 9,
      "componentType": 5126,
      "count": 30,
      "max": [
        0.3118988573551178,
        0.8088316321372986,
        0.6108017563819885
      ],
      "min": [
        -0.3118986487388611,
        -0.8014593124389648,
        -0.6212844848632812
      ],
      "type": "VEC3"
    },
    {
      "bufferView": 10,
      "componentType": 5126,
      "count": 30,
      "max": [
        0.9835145473480225,
        0.9825552701950073
      ],
      "min": [
        0.001999916974455118,
        0.002000093460083008
      ],
      "type": "VEC2"
    },
    {
      "bufferView": 11,
      "componentType": 5125,
      "count": 96,
      "max": [
        29
      ],
      "min": [
        0
      ],
      "type": "SCALAR"
    }
  ],
  "materials": [
    {
      "pbrMetallicRoughness": {
        "metallicFactor": 1,
        "roughnessFactor": 1,
        "metallicRoughnessTexture": {
          "index": 0
        },
        "baseColorTexture": {
          "index": 1
        }
      },
      "normalTexture": {
        "index": 2
      },
      "doubleSided": true,
      "name": "korean_fire_extinguisher_01_body"
    },
    {
      "pbrMetallicRoughness": {
        "baseColorFactor": [
          1,
          1,
          1,
          0.30000001192092896
        ],
        "metallicFactor": 1,
        "roughnessFactor": 1,
        "metallicRoughnessTexture": {
          "index": 3
        },
        "baseColorTexture": {
          "index": 4
        }
      },
      "normalTexture": {
        "index": 5
      },
      "alphaMode": "BLEND",
      "doubleSided": true,
      "name": "korean_fire_extinguisher_01_glass"
    },
    {
      "pbrMetallicRoughness": {
        "metallicFactor": 1,
        "roughnessFactor": 1,
        "metallicRoughnessTexture": {
          "index": 6
        },
        "baseColorTexture": {
          "index": 7
        }
      },
      "normalTexture": {
        "index": 8
      },
      "alphaMode": "BLEND",
      "name": "korean_fire_extinguisher_01_paper"
    }
  ],
  "textures": [
    {
      "sampler": 0,
      "source": 0,
      "extensions": {
        "EXT_texture_webp": {
          "source": 9
        },
        "EXT_View3D_texture_LOD": {
          "levels": [
            {
              "size": 2048,
              "index": 9
            }
          ]
        }
      }
    },
    {
      "sampler": 1,
      "source": 1,
      "extensions": {
        "EXT_texture_webp": {
          "source": 10
        },
        "EXT_View3D_texture_LOD": {
          "levels": [
            {
              "size": 2048,
              "index": 10
            }
          ]
        }
      }
    },
    {
      "sampler": 2,
      "source": 2,
      "extensions": {
        "EXT_texture_webp": {
          "source": 11
        },
        "EXT_View3D_texture_LOD": {
          "levels": [
            {
              "size": 2048,
              "index": 11
            }
          ]
        }
      }
    },
    {
      "sampler": 3,
      "source": 3,
      "extensions": {
        "EXT_texture_webp": {
          "source": 12
        },
        "EXT_View3D_texture_LOD": {
          "levels": [
            {
              "size": 2048,
              "index": 12
            }
          ]
        }
      }
    },
    {
      "sampler": 4,
      "source": 4,
      "extensions": {
        "EXT_texture_webp": {
          "source": 13
        },
        "EXT_View3D_texture_LOD": {
          "levels": [
            {
              "size": 2048,
              "index": 13
            }
          ]
        }
      }
    },
    {
      "sampler": 5,
      "source": 5,
      "extensions": {
        "EXT_texture_webp": {
          "source": 14
        },
        "EXT_View3D_texture_LOD": {
          "levels": [
            {
              "size": 2048,
              "index": 14
            }
          ]
        }
      }
    },
    {
      "sampler": 6,
      "source": 6,
      "extensions": {
        "EXT_texture_webp": {
          "source": 15
        },
        "EXT_View3D_texture_LOD": {
          "levels": [
            {
              "size": 2048,
              "index": 15
            }
          ]
        }
      }
    },
    {
      "sampler": 7,
      "source": 7,
      "extensions": {
        "EXT_texture_webp": {
          "source": 16
        },
        "EXT_View3D_texture_LOD": {
          "levels": [
            {
              "size": 2048,
              "index": 16
            }
          ]
        }
      }
    },
    {
      "sampler": 8,
      "source": 8,
      "extensions": {
        "EXT_texture_webp": {
          "source": 17
        },
        "EXT_View3D_texture_LOD": {
          "levels": [
            {
              "size": 2048,
              "index": 17
            }
          ]
        }
      }
    },
    {
      "sampler": 0,
      "source": 18,
      "extensions": {
        "EXT_texture_webp": {
          "source": 19
        }
      }
    },
    {
      "sampler": 1,
      "source": 20,
      "extensions": {
        "EXT_texture_webp": {
          "source": 21
        }
      }
    },
    {
      "sampler": 2,
      "source": 22,
      "extensions": {
        "EXT_texture_webp": {
          "source": 23
        }
      }
    },
    {
      "sampler": 3,
      "source": 24,
      "extensions": {
        "EXT_texture_webp": {
          "source": 25
        }
      }
    },
    {
      "sampler": 4,
      "source": 26,
      "extensions": {
        "EXT_texture_webp": {
          "source": 27
        }
      }
    },
    {
      "sampler": 5,
      "source": 28,
      "extensions": {
        "EXT_texture_webp": {
          "source": 29
        }
      }
    },
    {
      "sampler": 6,
      "source": 30,
      "extensions": {
        "EXT_texture_webp": {
          "source": 31
        }
      }
    },
    {
      "sampler": 7,
      "source": 32,
      "extensions": {
        "EXT_texture_webp": {
          "source": 33
        }
      }
    },
    {
      "sampler": 8,
      "source": 34,
      "extensions": {
        "EXT_texture_webp": {
          "source": 35
        }
      }
    }
  ],
  "samplers": [
    {
      "magFilter": 9729,
      "minFilter": 9987,
      "wrapS": 10497,
      "wrapT": 10497
    },
    {
      "magFilter": 9729,
      "minFilter": 9987,
      "wrapS": 10497,
      "wrapT": 10497
    },
    {
      "magFilter": 9729,
      "minFilter": 9987,
      "wrapS": 10497,
      "wrapT": 10497
    },
    {
      "magFilter": 9729,
      "minFilter": 9987,
      "wrapS": 10497,
      "wrapT": 10497
    },
    {
      "magFilter": 9729,
      "minFilter": 9987,
      "wrapS": 10497,
      "wrapT": 10497
    },
    {
      "magFilter": 9729,
      "minFilter": 9987,
      "wrapS": 10497,
      "wrapT": 10497
    },
    {
      "magFilter": 9729,
      "minFilter": 9987,
      "wrapS": 10497,
      "wrapT": 10497
    },
    {
      "magFilter": 9729,
      "minFilter": 9987,
      "wrapS": 10497,
      "wrapT": 10497
    },
    {
      "magFilter": 9729,
      "minFilter": 9987,
      "wrapS": 10497,
      "wrapT": 10497
    }
  ],
  "images": [
    {
      "mimeType": "image/png",
      "uri": "extinguisher0.jpeg"
    },
    {
      "mimeType": "image/png",
      "uri": "extinguisher1.jpeg"
    },
    {
      "mimeType": "image/png",
      "uri": "extinguisher2.jpeg"
    },
    {
      "mimeType": "image/png",
      "uri": "extinguisher3.jpeg"
    },
    {
      "mimeType": "image/png",
      "uri": "extinguisher4.jpeg"
    },
    {
      "mimeType": "image/png",
      "uri": "extinguisher5.jpeg"
    },
    {
      "mimeType": "image/png",
      "uri": "extinguisher6.jpeg"
    },
    {
      "mimeType": "image/png",
      "uri": "extinguisher7.jpeg"
    },
    {
      "mimeType": "image/png",
      "uri": "extinguisher8.jpeg"
    },
    {
      "mimeType": "image/webp",
      "uri": "extinguisher0.webp"
    },
    {
      "mimeType": "image/webp",
      "uri": "extinguisher1.webp"
    },
    {
      "mimeType": "image/webp",
      "uri": "extinguisher2.webp"
    },
    {
      "mimeType": "image/webp",
      "uri": "extinguisher3.webp"
    },
    {
      "mimeType": "image/webp",
      "uri": "extinguisher4.webp"
    },
    {
      "mimeType": "image/webp",
      "uri": "extinguisher5.webp"
    },
    {
      "mimeType": "image/webp",
      "uri": "extinguisher6.webp"
    },
    {
      "mimeType": "image/webp",
      "uri": "extinguisher7.webp"
    },
    {
      "mimeType": "image/webp",
      "uri": "extinguisher8.webp"
    },
    {
      "mimeType": "image/jpeg",
      "uri": "extinguisher0_2048.jpeg"
    },
    {
      "mimeType": "image/webp",
      "uri": "extinguisher0_2048.webp"
    },
    {
      "mimeType": "image/jpeg",
      "uri": "extinguisher1_2048.jpeg"
    },
    {
      "mimeType": "image/webp",
      "uri": "extinguisher1_2048.webp"
    },
    {
      "mimeType": "image/jpeg",
      "uri": "extinguisher2_2048.jpeg"
    },
    {
      "mimeType": "image/webp",
      "uri": "extinguisher2_2048.webp"
    },
    {
      "mimeType": "image/jpeg",
      "uri": "extinguisher3_2048.jpeg"
    },
    {
      "mimeType": "image/webp",
      "uri": "extinguisher3_2048.webp"
    },
    {
      "mimeType": "image/jpeg",
      "uri": "extinguisher4_2048.jpeg"
    },
    {
      "mimeType": "image/webp",
      "uri": "extinguisher4_2048.webp"
    },
    {
      "mimeType": "image/jpeg",
      "uri": "extinguisher5_2048.jpeg"
    },
    {
      "mimeType": "image/webp",
      "uri": "extinguisher5_2048.webp"
    },
    {
      "mimeType": "image/jpeg",
      "uri": "extinguisher6_2048.jpeg"
    },
    {
      "mimeType": "image/webp",
      "uri": "extinguisher6_2048.webp"
    },
    {
      "mimeType": "image/jpeg",
      "uri": "extinguisher7_2048.jpeg"
    },
    {
      "mimeType": "image/webp",
      "uri": "extinguisher7_2048.webp"
    },
    {
      "mimeType": "image/jpeg",
      "uri": "extinguisher8_2048.jpeg"
    },
    {
      "mimeType": "image/webp",
      "uri": "extinguisher8_2048.webp"
    }
  ],
  "meshes": [
    {
      "primitives": [
        {
          "mode": 4,
          "attributes": {
            "POSITION": 0,
            "NORMAL": 1,
            "TEXCOORD_0": 2
          },
          "indices": 3,
          "material": 0
        }
      ]
    },
    {
      "primitives": [
        {
          "mode": 4,
          "attributes": {
            "POSITION": 4,
            "NORMAL": 5,
            "TEXCOORD_0": 6
          },
          "indices": 7,
          "material": 1
        }
      ]
    },
    {
      "primitives": [
        {
          "mode": 4,
          "attributes": {
            "POSITION": 8,
            "NORMAL": 9,
            "TEXCOORD_0": 10
          },
          "indices": 11,
          "material": 2
        }
      ]
    }
  ],
  "extensionsUsed": [
    "EXT_texture_webp",
    "EXT_View3D_texture_LOD"
  ]
}