{
  "asset": {
    "version": "2.0",
    "generator": "THREE.GLTFExporter"
  },
  "scenes": [
    {
      "name": "AuxScene",
      "nodes": [
        3
      ]
    }
  ],
  "scene": 0,
  "nodes": [
    {
      "name": "potted_plant_04",
      "extras": {
        "name": "potted_plant_04"
      },
      "mesh": 0
    },
    {
      "name": "Scene",
      "children": [
        0
      ]
    },
    {
      "matrix": [
        1,
        0,
        0,
        0,
        0,
        1,
        0,
        0,
        0,
        0,
        1,
        0,
        0,
        0.00011746412844674205,
        0,
        1
      ],
      "children": [
        1
      ]
    },
    {
      "children": [
        2
      ]
    }
  ],
  "bufferViews": [
    {
      "buffer": 0,
      "byteOffset": 0,
      "byteLength": 29796,
      "target": 34962,
      "byteStride": 12
    },
    {
      "buffer": 0,
      "byteOffset": 29796,
      "byteLength": 48096,
      "target": 34962,
      "byteStride": 12
    },
    {
      "buffer": 0,
      "byteOffset": 77892,
      "byteLength": 19864,
      "target": 34962,
      "byteStride": 8
    },
    {
      "buffer": 0,
      "byteOffset": 97756,
      "byteLength": 18284,
      "target": 34963
    }
  ],
  "buffers": [
    {
      "byteLength": 116040,
      "uri": "data:application/octet-stream;base64,"
    }
  ],
  "accessors": [
    {
      "bufferView": 0,
      "componentType": 5126,
      "count": 2483,
      "max": [
        0.08519914746284485,
        0.267625093460083,
        0.10057651251554489
      ],
      "min": [
        -0.08513703942298889,
        -0.0008292385609820485,
        -0.08513703942298889
      ],
      "type": "VEC3"
    },
    {
      "bufferView": 1,
      "componentType": 5126,
      "count": 4008,
      "max": [
        1,
        1,
        0.9995328187942505
      ],
      "min": [
        -0.9983195066452026,
        -1,
        -0.9987682104110718
      ],
      "type": "VEC3"
    },
    {
      "bufferView": 2,
      "componentType": 5126,
      "count": 2483,
      "max": [
        0.994353175163269,
        0.9941917061805725
      ],
      "min": [
        0.004113249480724335,
        0.017503440380096436
      ],
      "type": "VEC2"
    },
    {
      "bufferView": 3,
      "componentType": 5123,
      "count": 9141,
      "max": [
        2482
      ],
      "min": [
        0
      ],
      "type": "SCALAR"
    }
  ],
  "materials": [
    {
      "pbrMetallicRoughness": {
        "metallicFactor": 1,
        "roughnessFactor": 1,
        "metallicRoughnessTexture": {
          "index": 0
        },
        "baseColorTexture": {
          "index": 1
        }
      },
      "normalTexture": {
        "index": 2
      },
      "doubleSided": true,
      "name": "PottedPlant_04"
    }
  ],
  "textures": [
    {
      "sampler": 0,
      "source": 0,
      "extensions": {
        "EXT_texture_webp": {
          "source": 3
        }
      }
    },
    {
      "sampler": 1,
      "source": 1,
      "extensions": {
        "EXT_texture_webp": {
          "source": 4
        }
      }
    },
    {
      "sampler": 2,
      "source": 2,
      "extensions": {
        "EXT_texture_webp": {
          "source": 5
        }
      }
    }
  ],
  "samplers": [
    {
      "magFilter": 9729,
      "minFilter": 9987,
      "wrapS": 10497,
      "wrapT": 10497
    },
    {
      "magFilter": 9729,
      "minFilter": 9987,
      "wrapS": 10497,
      "wrapT": 10497
    },
    {
      "magFilter": 9729,
      "minFilter": 9987,
      "wrapS": 10497,
      "wrapT": 10497
    }
  ],
  "images": [
    {
      "mimeType": "image/png",
      "uri": "plant0.png"
    },
    {
      "mimeType": "image/png",
      "uri": "plant1.png"
    },
    {
      "mimeType": "image/png",
      "uri": "plant2.png"
    },
    {
      "mimeType": "image/webp",
      "uri": "plant0.webp"
    },
    {
      "mimeType": "image/webp",
      "uri": "plant1.webp"
    },
    {
      "mimeType": "image/webp",
      "uri": "plant2.webp"
    }
  ],
  "meshes": [
    {
      "primitives": [
        {
          "mode": 4,
          "attributes": {
            "POSITION": 0,
            "NORMAL": 1,
            "TEXCOORD_0": 2
          },
          "indices": 3,
          "material": 0
        }
      ]
    }
  ],
  "extensionsUsed": [
    "EXT_texture_webp"
  ]
}